<svg width="155" height="25" viewBox="0 0 155 25" fill="none" xmlns="http://www.w3.org/2000/svg"><path d="M39.845 17.165c-.64 0-1.28-.07-1.92-.21-.64-.14-1.195-.345-1.665-.615-.28-.15-.455-.35-.525-.6-.07-.26-.055-.51.045-.75s.26-.41.48-.51c.22-.1.485-.075.795.075.4.23.845.4 1.335.51.49.11.975.165 1.455.165.72 0 1.235-.11 1.545-.33.32-.23.48-.515.48-.855 0-.29-.11-.52-.33-.69-.22-.17-.605-.315-1.155-.435l-1.695-.36c-1.89-.4-2.835-1.38-2.835-2.94 0-.67.18-1.255.54-1.755.36-.51.86-.905 1.5-1.185.65-.28 1.4-.42 2.25-.42.56 0 1.11.07 1.65.21a4.69 4.69 0 011.425.585c.25.15.405.345.465.585s.04.47-.06.69a.816.816 0 01-.48.465c-.22.09-.495.055-.825-.105-.33-.17-.68-.295-1.05-.375a5.38 5.38 0 00-1.14-.12c-.63 0-1.12.125-1.47.375-.34.24-.51.555-.51.945 0 .29.105.525.315.705.21.18.575.325 1.095.435l1.695.36c1.94.42 2.91 1.37 2.91 2.85 0 .66-.18 1.24-.54 1.74-.35.49-.85.875-1.5 1.155-.64.27-1.4.405-2.28.405zm6.774 2.67c-.76 0-1.14-.385-1.14-1.155v-8.025c0-.76.37-1.14 1.11-1.14.75 0 1.125.38 1.125 1.14v.045c.21-.37.52-.665.93-.885.41-.22.87-.33 1.38-.33.64 0 1.2.155 1.68.465.49.31.87.75 1.14 1.32.27.57.405 1.25.405 2.04s-.135 1.475-.405 2.055c-.27.57-.65 1.015-1.14 1.335-.48.31-1.04.465-1.68.465-.49 0-.94-.105-1.35-.315-.4-.21-.71-.49-.93-.84v2.67c0 .77-.375 1.155-1.125 1.155zm2.73-4.365c.48 0 .87-.175 1.17-.525.3-.35.45-.895.45-1.635 0-.73-.15-1.265-.45-1.605-.3-.35-.69-.525-1.17-.525-.49 0-.885.175-1.185.525-.3.34-.45.875-.45 1.605 0 .74.15 1.285.45 1.635.3.35.695.525 1.185.525zm6.426-7.185c-.42 0-.745-.095-.975-.285-.22-.2-.33-.48-.33-.84 0-.37.11-.65.33-.84.23-.2.555-.3.975-.3.86 0 1.29.38 1.29 1.14 0 .75-.43 1.125-1.29 1.125zm0 8.835c-.37 0-.655-.105-.855-.315-.19-.22-.285-.525-.285-.915v-5.13c0-.83.38-1.245 1.14-1.245.36 0 .635.11.825.33.2.21.3.515.3.915v5.13c0 .39-.095.695-.285.915-.19.21-.47.315-.84.315zm5.738.045c-.64 0-1.205-.155-1.695-.465-.48-.32-.855-.765-1.125-1.335-.27-.58-.405-1.265-.405-2.055 0-.79.135-1.47.405-2.04.27-.57.645-1.01 1.125-1.32.49-.31 1.055-.465 1.695-.465.49 0 .94.105 1.35.315.41.21.72.49.93.84V7.445c0-.77.375-1.155 1.125-1.155.76 0 1.14.385 1.14 1.155v8.535c0 .77-.375 1.155-1.125 1.155s-1.125-.385-1.125-1.155v-.045c-.2.38-.51.68-.93.9-.41.22-.865.33-1.365.33zm.675-1.695c.48 0 .87-.175 1.17-.525.31-.35.465-.895.465-1.635 0-.73-.155-1.265-.465-1.605-.3-.35-.69-.525-1.17-.525s-.87.175-1.17.525c-.3.34-.45.875-.45 1.605 0 .74.15 1.285.45 1.635.3.35.69.525 1.17.525zm9.44 1.695c-.87 0-1.62-.155-2.25-.465-.62-.32-1.1-.765-1.44-1.335-.33-.58-.494-1.26-.494-2.04 0-.76.16-1.425.48-1.995.33-.58.775-1.03 1.335-1.35.57-.33 1.225-.495 1.965-.495 1.07 0 1.92.34 2.55 1.02.63.67.945 1.58.945 2.73 0 .38-.235.57-.705.57h-4.41c.08.58.29 1.005.63 1.275.35.26.83.39 1.44.39.24 0 .51-.025.81-.075.31-.06.605-.16.885-.3.29-.14.535-.165.735-.075.2.08.335.22.405.42.08.2.08.41 0 .63-.07.21-.235.385-.495.525-.35.19-.74.33-1.17.42-.42.1-.825.15-1.215.15zm-.314-6.18c-.48 0-.87.145-1.17.435-.29.29-.47.695-.54 1.215h3.24c-.06-1.1-.57-1.65-1.53-1.65zm5.892 6.15c-.78 0-1.17-.385-1.17-1.155v-5.325c0-.76.37-1.14 1.11-1.14.74 0 1.11.38 1.11 1.14v.27c.36-.89 1.105-1.37 2.235-1.44.25-.02.44.045.57.195.14.14.215.375.225.705.02.31-.045.555-.195.735-.14.18-.38.29-.72.33l-.345.03c-1.12.11-1.68.68-1.68 1.71v2.79c0 .77-.38 1.155-1.14 1.155zm8.987.03c-.64 0-1.28-.07-1.92-.21-.64-.14-1.195-.345-1.665-.615-.28-.15-.455-.35-.525-.6-.07-.26-.055-.51.045-.75s.26-.41.48-.51c.22-.1.485-.075.795.075.4.23.845.4 1.335.51.49.11.975.165 1.455.165.72 0 1.235-.11 1.545-.33.32-.23.48-.515.48-.855 0-.29-.11-.52-.33-.69-.22-.17-.605-.315-1.155-.435l-1.695-.36c-1.89-.4-2.835-1.38-2.835-2.94 0-.67.18-1.255.54-1.755.36-.51.86-.905 1.5-1.185.65-.28 1.4-.42 2.25-.42.56 0 1.11.07 1.65.21a4.69 4.69 0 011.425.585c.25.15.405.345.465.585s.04.47-.06.69a.816.816 0 01-.48.465c-.22.09-.495.055-.825-.105-.33-.17-.68-.295-1.05-.375a5.38 5.38 0 00-1.14-.12c-.63 0-1.12.125-1.47.375-.34.24-.51.555-.51.945 0 .29.105.525.315.705.21.18.575.325 1.095.435l1.695.36c1.94.42 2.91 1.37 2.91 2.85 0 .66-.18 1.24-.54 1.74-.35.49-.85.875-1.5 1.155-.64.27-1.4.405-2.28.405zm6.774-.03c-.76 0-1.14-.385-1.14-1.155V7.445c0-.77.38-1.155 1.14-1.155.75 0 1.125.385 1.125 1.155v3.195c.26-.38.595-.665 1.005-.855.41-.2.865-.3 1.365-.3 1.73 0 2.595 1.03 2.595 3.09v3.405c0 .77-.38 1.155-1.14 1.155-.36 0-.64-.1-.84-.3-.19-.2-.285-.485-.285-.855v-3.3c0-.51-.095-.875-.285-1.095-.19-.23-.47-.345-.84-.345-.48 0-.865.15-1.155.45-.28.3-.42.7-.42 1.2v3.09c0 .77-.375 1.155-1.125 1.155zm8.921-8.85c-.42 0-.745-.095-.975-.285-.22-.2-.33-.48-.33-.84 0-.37.11-.65.33-.84.23-.2.555-.3.975-.3.86 0 1.29.38 1.29 1.14 0 .75-.43 1.125-1.29 1.125zm0 8.835c-.37 0-.655-.105-.855-.315-.19-.22-.285-.525-.285-.915v-5.13c0-.83.38-1.245 1.14-1.245.36 0 .635.11.825.33.2.21.3.515.3.915v5.13c0 .39-.095.695-.285.915-.19.21-.47.315-.84.315zm7.419.045c-.51 0-.97-.11-1.38-.33-.41-.22-.72-.52-.93-.9v.045c0 .77-.37 1.155-1.11 1.155-.75 0-1.125-.385-1.125-1.155V7.445c0-.77.38-1.155 1.14-1.155.75 0 1.125.385 1.125 1.155v3.18c.22-.35.53-.625.93-.825.41-.21.86-.315 1.35-.315.64 0 1.2.155 1.68.465.49.31.87.75 1.14 1.32.27.57.405 1.25.405 2.04s-.135 1.475-.405 2.055c-.27.57-.65 1.015-1.14 1.335-.48.31-1.04.465-1.68.465zm-.675-1.695c.48 0 .87-.175 1.17-.525.3-.35.45-.895.45-1.635 0-.73-.15-1.265-.45-1.605-.3-.35-.69-.525-1.17-.525-.49 0-.885.175-1.185.525-.3.34-.45.875-.45 1.605 0 .74.15 1.285.45 1.635.3.35.695.525 1.185.525zm7.775 1.695c-.55 0-1.035-.105-1.455-.315a2.627 2.627 0 01-1.005-.855c-.24-.36-.36-.765-.36-1.215 0-.53.14-.955.42-1.275.28-.32.735-.545 1.365-.675.63-.14 1.465-.21 2.505-.21h.54v-.255c0-.44-.1-.75-.3-.93-.2-.19-.54-.285-1.02-.285-.27 0-.565.035-.885.105-.32.06-.665.165-1.035.315-.28.12-.515.13-.705.03a.785.785 0 01-.375-.48c-.06-.22-.045-.44.045-.66.1-.22.29-.38.57-.48.47-.18.91-.305 1.32-.375.42-.08.805-.12 1.155-.12 1.14 0 1.99.26 2.55.78.56.51.84 1.305.84 2.385v3.33c0 .77-.35 1.155-1.05 1.155-.71 0-1.065-.385-1.065-1.155v-.09c-.15.39-.405.7-.765.93-.35.23-.78.345-1.29.345zm.51-1.515c.42 0 .775-.145 1.065-.435.29-.29.435-.665.435-1.125v-.3h-.525c-.77 0-1.315.07-1.635.21-.32.13-.48.36-.48.69 0 .28.095.51.285.69.2.18.485.27.855.27z" fill="#fff"/><path d="M127.821 17.135c-.38 0-.67-.105-.87-.315-.2-.21-.3-.505-.3-.885V7.49c0-.8.39-1.2 1.17-1.2.77 0 1.155.4 1.155 1.2v8.445c0 .8-.385 1.2-1.155 1.2zm4.228 0c-.76 0-1.14-.385-1.14-1.155v-5.325c0-.76.37-1.14 1.11-1.14.74 0 1.11.38 1.11 1.14v.06c.25-.4.585-.705 1.005-.915.42-.21.89-.315 1.41-.315.87 0 1.52.255 1.95.765.43.5.645 1.275.645 2.325v3.405c0 .77-.38 1.155-1.14 1.155-.36 0-.64-.1-.84-.3-.19-.2-.285-.485-.285-.855v-3.3c0-.51-.095-.875-.285-1.095-.19-.23-.47-.345-.84-.345-.48 0-.865.15-1.155.45-.28.3-.42.7-.42 1.2v3.09c0 .77-.375 1.155-1.125 1.155zm10.496.03c-.94 0-1.635-.26-2.085-.78-.44-.52-.66-1.3-.66-2.34v-3.39c0-.76.375-1.14 1.125-1.14.76 0 1.14.38 1.14 1.14v3.45c0 .87.375 1.305 1.125 1.305.43 0 .78-.15 1.05-.45.28-.31.42-.715.42-1.215v-3.09c0-.76.375-1.14 1.125-1.14.76 0 1.14.38 1.14 1.14v5.325c0 .77-.365 1.155-1.095 1.155-.36 0-.635-.1-.825-.3-.19-.2-.285-.48-.285-.84-.49.78-1.215 1.17-2.175 1.17z" fill="#E11D2E"/><rect width="25" height="25" rx="5" fill="#E22F2F"/><path opacity=".3" d="M21.5 20.808c0 .305-3.918.551-8.75.551S4 21.112 4 20.808c0-.305 3.918-.551 8.75-.551s8.75.246 8.75.551z" fill="#000072"/><path d="M20.115 20.118a1.846 1.846 0 01-1.389.618H6.773a1.846 1.846 0 01-1.389-.618 2.355 2.355 0 01-.429-.71v-.001c-.3-.782-.147-1.621.331-1.923.804-.507 1.424.113 1.424.113a1.56 1.56 0 01.265-.413c.392-.444.94-.614.94-.614-.298-1.68.368-3.202.368-3.202s1.641 1.217 4.467 1.217c2.825 0 4.466-1.217 4.466-1.217s.666 1.522.367 3.202c0 0 .879.271 1.206 1.027 0 0 .62-.62 1.424-.113.631.398.696 1.73-.098 2.634z" fill="#B11313"/><path opacity=".3" d="M7.188 19.145c.111-1.053-.476-1.508-.476-1.508a1.56 1.56 0 01.265-.413c.911 1.07.211 1.92.211 1.92zm11.129 0c-.11-1.053.477-1.508.477-1.508a1.561 1.561 0 00-.265-.413c-.912 1.07-.212 1.92-.212 1.92z" fill="#000072"/><path opacity=".3" d="M18.41 20.031a.751.751 0 00-.26-.018c-.124.013-.337.034-.65.057a.849.849 0 01-.917-.777 1.47 1.47 0 01.027-.402c-.123.517-.35.994-.489 1.255-.704.03-1.596.053-2.7.06-.059-2.094 1.18-4.057 1.18-4.057-1.898 1.49-3.696 0-3.696 0 1.252 2.183 1.187 3.966 1.187 3.966l.21.092a79.856 79.856 0 01-2.917-.06 5.56 5.56 0 01-.49-1.256c.012.05.044.215.026.426-.04.454-.452.787-.914.753a19.637 19.637 0 01-.652-.057.752.752 0 00-.26.018c-1.36.333-2.114-.552-2.138-.58.095.248.237.492.43.71.346.396.856.618 1.388.618H18.73c.532 0 1.041-.222 1.389-.618.191-.218.333-.462.429-.71-.025.028-.778.913-2.138.58zM8.892 18.89l-.003-.016.003.016zm7.718 0l.004-.016-.004.016z" fill="#000072"/><path d="M12.748 20.656h5.978c.502 0 .974-.21 1.295-.576.415-.472.62-1.127.535-1.708-.05-.34-.2-.611-.41-.744a1.01 1.01 0 00-1.269.096.125.125 0 01-.202-.038c-.301-.696-1.12-.955-1.129-.958a.121.121 0 01-.085-.137c.238-1.335-.154-2.585-.304-2.994-.45.289-1.995 1.152-4.408 1.152-2.411 0-3.957-.864-4.407-1.152-.15.41-.541 1.659-.304 2.994a.121.121 0 01-.085.137c-.008.003-.829.265-1.129.958a.125.125 0 01-.202.038 1.016 1.016 0 00-1.269-.096c-.21.133-.36.404-.41.744-.085.581.12 1.236.535 1.708a1.72 1.72 0 001.295.576h5.975zm5.978.243H6.773c-.574 0-1.114-.24-1.483-.66-.46-.524-.687-1.253-.592-1.902.062-.416.247-.74.521-.914.654-.412 1.205-.143 1.448.025.307-.553.877-.824 1.11-.915-.26-1.656.365-3.11.392-3.172a.126.126 0 01.188-.05c.017.013 1.646 1.194 4.393 1.194 2.746 0 4.375-1.181 4.391-1.193.03-.023.07-.03.107-.02a.123.123 0 01.082.069c.027.062.651 1.516.392 3.172.233.091.803.362 1.11.915.243-.168.794-.437 1.448-.025.274.174.46.498.52.914.096.65-.13 1.378-.591 1.902-.369.42-.91.66-1.483.66z" fill="#000072"/><path d="M6.78 17.54l.03.02.023.02c.016.012.03.026.045.039.015.013.027.027.04.041a1.227 1.227 0 01.166.228c.074.13.124.27.158.41.033.14.045.284.045.425 0 .07-.007.141-.012.21a3.36 3.36 0 01-.037.207.024.024 0 01-.03.019.024.024 0 01-.018-.02v-.001c-.013-.069-.02-.136-.03-.203l-.017-.099c-.007-.033-.01-.066-.018-.098-.017-.065-.026-.13-.047-.192-.009-.031-.016-.063-.026-.094l-.032-.092a1.942 1.942 0 00-.162-.343c-.017-.026-.033-.053-.051-.078l-.027-.038-.028-.036c-.018-.025-.04-.047-.059-.07l-.03-.031-.015-.015-.011-.011-.027-.053a.114.114 0 01.052-.153.119.119 0 01.118.008zm12.077.198l-.011.011-.015.015-.03.032c-.02.022-.04.044-.059.07l-.028.035-.027.038c-.018.025-.034.052-.051.078a1.944 1.944 0 00-.163.343l-.032.092c-.01.03-.017.063-.026.094-.02.062-.03.127-.046.192-.01.032-.012.065-.018.098l-.018.1c-.01.066-.017.133-.029.202v.001a.024.024 0 01-.028.02.024.024 0 01-.02-.019 3.41 3.41 0 01-.037-.206c-.005-.07-.013-.14-.013-.21 0-.142.012-.285.046-.426.034-.14.083-.28.158-.41a1.224 1.224 0 01.165-.228l.04-.041.045-.04.024-.018.03-.021a.118.118 0 01.162.03c.024.035.026.08.008.115l-.027.053zM8.04 16.598l.01.097.012.109.014.113c.003.039.006.08.004.123a.012.012 0 01-.014.012l-.006-.003a.5.5 0 01-.095-.085.956.956 0 01-.131-.21c-.008-.02-.017-.04-.023-.06a.432.432 0 01-.017-.067.122.122 0 01.102-.14.124.124 0 01.143.108v.003zm9.669.029a.323.323 0 01-.018.067.725.725 0 01-.022.06.955.955 0 01-.132.21.5.5 0 01-.095.085.013.013 0 01-.017-.002.876.876 0 01.001-.13l.014-.113.013-.109.01-.097v-.003a.123.123 0 01.136-.108.122.122 0 01.11.133v.007z" fill="#000072"/><path d="M8.639 17.803s-.567-.431-.724-1.19c0 0-.326-.163-.552.276 0 0 .26 1.337 1.526 1.985 0 0-.183-.688-.25-1.07z" fill="#0096F2"/><path d="M7.494 16.905c.051.204.326 1.137 1.201 1.714-.055-.22-.128-.525-.17-.751a2.299 2.299 0 01-.716-1.162c-.071-.012-.2.002-.315.2zm1.394 2.09a.125.125 0 01-.057-.014c-1.303-.667-1.578-2.013-1.59-2.07a.12.12 0 01.012-.078c.14-.274.325-.351.454-.368a.487.487 0 01.264.038.122.122 0 01.065.084c.145.704.673 1.116.679 1.12a.13.13 0 01.046.075c.065.373.246 1.054.247 1.06a.12.12 0 01-.042.127.125.125 0 01-.078.026z" fill="#000072"/><path d="M16.863 17.803s.567-.431.724-1.19c0 0 .326-.163.552.276 0 0-.26 1.337-1.526 1.985 0 0 .183-.688.25-1.07z" fill="#0096F2"/><path d="M16.976 17.868c-.042.226-.115.53-.17.752.874-.578 1.15-1.51 1.2-1.715-.07-.12-.152-.187-.245-.199a.249.249 0 00-.07.001 2.299 2.299 0 01-.715 1.161zm-.364 1.127a.125.125 0 01-.077-.026.12.12 0 01-.043-.126c.002-.007.183-.688.248-1.06a.122.122 0 01.046-.076c.005-.004.533-.416.679-1.12a.121.121 0 01.065-.084.485.485 0 01.264-.038c.13.017.313.094.454.368a.12.12 0 01.011.078c-.01.057-.286 1.403-1.59 2.07a.125.125 0 01-.057.014z" fill="#000072"/><path d="M10.348 14.696s.212.593.151 1.458l.702.599s.183-1.045-.13-1.912l-.723-.145z" fill="#0096F2"/><path d="M10.625 16.1l.48.41c.032-.333.06-.986-.13-1.565l-.455-.09c.058.24.137.683.105 1.246zm.573.774a.125.125 0 01-.08-.03l-.702-.6a.12.12 0 01-.042-.1c.058-.826-.143-1.402-.145-1.408a.12.12 0 01.023-.12.126.126 0 01.118-.04l.724.145a.123.123 0 01.092.079c.32.887.142 1.93.134 1.973a.122.122 0 01-.122.101z" fill="#000072"/><path d="M15.153 14.696s-.212.593-.151 1.458l-.702.599s-.183-1.045.13-1.912l.723-.145z" fill="#0096F2"/><path d="M14.525 14.945c-.19.58-.162 1.233-.13 1.566l.48-.41a4.287 4.287 0 01.105-1.247l-.455.091zm-.224 1.929a.122.122 0 01-.122-.101c-.008-.044-.185-1.086.134-1.973a.13.13 0 01.092-.08l.725-.144a.124.124 0 01.117.04.12.12 0 01.024.12c-.003.01-.203.585-.145 1.409a.12.12 0 01-.042.1l-.702.6a.125.125 0 01-.08.029z" fill="#000072"/><path d="M12.05 20.398a1.201 1.201 0 01-1.889.719c-.553-.409-1.161-1.342-1.536-3.389-.036-.196-.07-.402-.102-.62l.24-.222 1.584-1.476s1.56 2.373 1.734 4.193c.027.282.02.55-.03.795z" fill="#B11313"/><path opacity=".3" d="M12.05 20.398a1.202 1.202 0 01-1.89.719c-.553-.409-1.16-1.342-1.536-3.389-.528-.312-.71-1.116-.71-1.116-.228-1.068.035-2.051.035-2.051-.05 1.299.475 1.919.692 2.117.06.056.102.127.12.206l.001.002c.387 1.681 1.035 3.73 1.975 3.877.908.141 1.3-1.02 1.343-1.16.027.282.02.55-.03.795z" fill="#000072"/><path d="M10.483 15.297a3.5 3.5 0 01.453.63 16.528 16.528 0 01.352.686c.221.463.424.937.592 1.425.168.488.304.992.353 1.516.024.262.026.53-.02.798a1.276 1.276 0 01-.125.404c-.064.129-.15.247-.251.35a1.371 1.371 0 01-1.203.372 1.376 1.376 0 01-.586-.266l-.081-.065c-.027-.021-.05-.046-.076-.07-.025-.023-.051-.045-.074-.07l-.07-.075c-.047-.049-.086-.103-.13-.155a3.87 3.87 0 01-.412-.677 6.392 6.392 0 01-.295-.722 9.656 9.656 0 01-.215-.743c-.03-.125-.062-.25-.086-.376-.026-.125-.056-.25-.074-.377a3.15 3.15 0 01-.037-.77.027.027 0 01.03-.024c.01 0 .018.007.022.016.052.122.09.244.124.366.033.123.068.245.094.369.024.123.054.246.081.369.026.123.06.244.09.366.064.244.14.483.222.72.088.233.178.467.293.686.113.221.242.433.393.623.039.047.075.096.117.138l.062.066c.02.022.044.041.066.062.022.02.043.042.066.06l.07.055a1.076 1.076 0 00.46.206 1.068 1.068 0 001.124-.566 1.06 1.06 0 00.1-.322c.04-.233.04-.478.02-.721a5.245 5.245 0 00-.124-.73 8.356 8.356 0 00-.207-.721 13.056 13.056 0 00-.565-1.402 16.24 16.24 0 00-.165-.342c-.055-.113-.114-.226-.168-.34a5.984 5.984 0 01-.295-.705.044.044 0 01.028-.056.046.046 0 01.047.012z" fill="#000072"/><path d="M8.972 19.268a.124.124 0 01-.091-.04.12.12 0 01.006-.171c.046-.042 1.145-1.024 2.827-1.147a.123.123 0 01.133.112.122.122 0 01-.115.13 4.891 4.891 0 00-2.677 1.083.125.125 0 01-.083.033z" fill="#000072"/><path d="M13.45 20.398a1.202 1.202 0 001.89.719c.553-.409 1.16-1.342 1.536-3.389.036-.196.07-.402.101-.62l-.239-.222-1.584-1.476s-1.561 2.373-1.734 4.193c-.027.282-.02.55.03.795z" fill="#B11313"/><path opacity=".3" d="M13.446 20.398a1.202 1.202 0 001.89.719c.553-.409 1.16-1.342 1.536-3.389.529-.312.71-1.116.71-1.116.228-1.068-.035-2.051-.035-2.051.05 1.299-.475 1.919-.692 2.117a.404.404 0 00-.12.206v.002c-.388 1.681-1.036 3.73-1.976 3.877-.908.141-1.299-1.02-1.343-1.16-.027.282-.02.55.03.795z" fill="#000072"/><path d="M15.093 15.341a5.984 5.984 0 01-.295.705c-.054.114-.113.227-.169.34-.056.114-.11.227-.164.342-.214.458-.407.925-.566 1.401a8.32 8.32 0 00-.206.721 5.245 5.245 0 00-.123.73c-.022.244-.021.489.019.722a1 1 0 00.1.322 1.055 1.055 0 00.787.569 1.045 1.045 0 00.654-.115c.05-.028.097-.057.143-.094l.07-.055c.023-.018.044-.04.066-.06.022-.02.045-.04.066-.062l.061-.066c.043-.042.08-.091.118-.138.151-.19.28-.402.392-.623.115-.22.206-.453.294-.686.082-.237.158-.476.22-.72.032-.122.066-.243.092-.366.027-.123.056-.246.081-.37.026-.123.06-.245.093-.368.034-.122.073-.244.125-.365a.027.027 0 01.035-.015c.01.004.016.013.017.022.022.26.003.517-.037.77-.018.127-.049.252-.074.377-.024.126-.056.25-.086.376-.06.25-.134.497-.215.743a6.397 6.397 0 01-.295.722 3.868 3.868 0 01-.413.677c-.043.052-.082.106-.13.155l-.07.075c-.022.025-.048.047-.073.07-.025.024-.049.049-.076.07l-.08.065a1.377 1.377 0 01-.587.266 1.371 1.371 0 01-1.202-.373 1.358 1.358 0 01-.331-.548 1.273 1.273 0 01-.047-.205 3.098 3.098 0 01-.02-.798c.05-.524.185-1.028.354-1.516.168-.488.37-.962.593-1.425a16.288 16.288 0 01.351-.686c.13-.222.272-.437.453-.63a.045.045 0 01.063-.003c.013.012.018.03.012.046v.001z" fill="#000072"/><path d="M16.53 19.268a.124.124 0 01-.084-.033 4.892 4.892 0 00-2.677-1.082.122.122 0 01-.114-.13.123.123 0 01.132-.113c1.682.123 2.78 1.105 2.827 1.147a.12.12 0 01.007.172.125.125 0 01-.091.039z" fill="#000072"/><path d="M12.752 14.235c3.239 0 4.525-1.39 4.525-1.39s.054.12.08.29a.771.771 0 01-.31.735c-.51.376-1.807 1.093-4.297 1.093-2.49 0-3.787-.717-4.296-1.093a.771.771 0 01-.31-.735c.026-.17.08-.29.08-.29s1.286 1.39 4.525 1.39" fill="#751313"/><path opacity=".3" d="M17.346 13.07a.784.784 0 01-.298.45c-.51.375-1.807 1.092-4.297 1.092-2.49 0-3.787-.717-4.296-1.093a.784.784 0 01-.299-.45.771.771 0 00.298.8c.51.377 1.808 1.094 4.297 1.094 2.49 0 3.787-.717 4.297-1.093a.77.77 0 00.298-.8z" fill="#000072"/><path d="M12.75 15.085c-2.486 0-3.806-.7-4.37-1.117a.889.889 0 01-.36-.85c.03-.185.088-.316.09-.322a.125.125 0 01.205-.033c.013.014 1.297 1.35 4.434 1.35v.244c-2.68 0-4.039-.928-4.466-1.29a.648.648 0 00.245.706c.54.4 1.808 1.069 4.222 1.069 2.415 0 3.682-.67 4.223-1.069a.648.648 0 00.245-.706c-.428.362-1.787 1.29-4.466 1.29v-.243c3.148 0 4.42-1.337 4.433-1.35a.125.125 0 01.205.033c.003.005.061.136.09.32a.89.89 0 01-.358.85c-.566.418-1.886 1.118-4.372 1.118z" fill="#000072"/><path d="M8.229 13.874l1.997 4.465m4.966 0l2.04-4.465" stroke="#000072" stroke-width=".2" stroke-miterlimit="10"/><path fill-rule="evenodd" clip-rule="evenodd" d="M12.604 15.697c-.001.01-.008.02-.012.031a.524.524 0 00-.012.032.248.248 0 00-.018.092.433.433 0 00.104-.003c.017.007.027.018.042.026-.003-.014.01-.016.022-.02-.005.006-.013.01-.01.02.007.004.008-.004.013-.005a.02.02 0 00.026 0c.005 0 .004.006.01.007.009-.008-.004-.016-.007-.022.01.004.023.007.022.019.012-.005.027-.017.039-.025a.61.61 0 00.107.004c-.002-.06-.024-.108-.045-.155.006 0 .006.005.008.007a.587.587 0 01.058.108l.008.02c.003.008.008.02.007.023-.003.008-.023.01-.027.018-.013-.01-.048-.007-.082-.008-.01 0-.023-.002-.028-.001-.013.002-.02.015-.026.022.019 0 .033-.011.05-.012.01 0 .025.005.038.007.038.007.081.012.116.02a.316.316 0 00-.07-.202.354.354 0 01.098.162c.004.013.004.03.014.039l-.04.025a.43.43 0 00-.167-.032.081.081 0 00-.037.012.18.18 0 00.055.005c.006 0 .015-.002.02-.001.004 0 .013.008.02.013.043.029.081.05.132.073.016.007.025.014.044.005a.358.358 0 01-.08.229c-.006.007-.01.016-.019.021a.363.363 0 00.061-.195c0-.008.003-.018 0-.025-.003-.01-.026-.02-.04-.03a1.692 1.692 0 00-.111-.062c-.009-.005-.016-.01-.023-.012-.007-.002-.018-.002-.027-.003l-.028-.002a.524.524 0 00.066.038c.004.002.008-.001.013-.001a.563.563 0 01-.053.302.162.162 0 01-.044.053c.064-.077.069-.21.055-.325.014-.008.008-.015-.004-.024a.215.215 0 00-.052-.031c-.001.005.001.01.004.015.003.005.01.009.01.013.003.009-.002.028-.005.039a.348.348 0 01-.046.098c-.007 0-.002-.008-.006-.01-.007 0-.003.007-.006.01a.266.266 0 01-.048-.098c-.003-.013-.009-.028-.006-.04.003-.008.016-.016.015-.026-.014.002-.026.011-.037.019a.17.17 0 00-.03.025c.001.004.007.005.009.009-.01.117-.01.249.057.325-.007-.001-.01-.007-.014-.01-.061-.067-.078-.168-.085-.273-.001-.024-.003-.046.002-.07.001-.004.009.003.013 0 .024-.012.045-.026.067-.038-.02.002-.04.001-.058.006-.015.004-.032.015-.046.023a1.08 1.08 0 00-.126.077.37.37 0 00.06.224c-.054-.07-.103-.146-.098-.251.02.013.051-.008.067-.016a.96.96 0 00.128-.075c.025.002.055 0 .076-.003-.026-.023-.093-.011-.134-.003a.276.276 0 00-.068.022c-.016-.007-.027-.017-.042-.024.01-.018.013-.048.021-.068.02-.05.05-.094.088-.134-.001.008-.01.014-.014.021a.327.327 0 00-.055.18 4.3 4.3 0 00.116-.02c.014-.002.027-.006.038-.006.016 0 .032.012.05.012a.056.056 0 00-.022-.022c-.03.002-.065-.002-.092.002a.054.054 0 00-.01.003l-.008.004c-.006 0-.021-.015-.028-.016.014-.062.046-.11.077-.161zm.147-.613v1.726-1.726z" fill="#000072"/><path d="M12.751 15.084v1.726m-.549-1.737s.097 1.413-.045 1.663m-.388-1.69s.217.654-.097 1.537m1.578-1.499s-.1 1.252.046 1.679m.469-1.717s-.23 1.242.112 1.537" stroke="#000072" stroke-width=".2" stroke-miterlimit="10"/><path d="M11.318 15.293s.218-.203.503 0c0 0 .15-.202.397.028 0 0 .135-.252.532-.027 0 0 .168-.211.468 0 0 0 .237-.234.514-.012 0 0 .246-.264.46-.028m-1.473.363a.488.488 0 00-.023-.015.377.377 0 00-.467.02c-.201-.205-.387 0-.387 0-.312-.357-.48 0-.48 0" stroke="#000072" stroke-width=".2" stroke-miterlimit="10"/><path d="M12.71 15.621s.248-.194.507 0c0 0 .252-.24.473.01 0 0 .328-.247.45-.004m-2.779.593s.2-.324.411.028c0 0 .378-.257.458.101 0 0 .313-.156.532.101 0 0 .232-.266.5-.063 0 0 .18-.407.483-.093 0 0 .187-.34.395-.146" stroke="#000072" stroke-width=".2" stroke-miterlimit="10"/><path d="M11.342 16.414s.26-.26.374.036c0 0 .376-.167.48.133 0 0 .389-.2.55.12 0 0 .23-.212.506-.068 0 0 .254-.375.547-.154 0 0 .21-.35.334-.132" stroke="#000072" stroke-width=".2" stroke-miterlimit="10"/><path d="M9.055 19.235s1.155-1.193 2.616-1.078l.332 1.002s-.359 1.487-2.622.986l-.326-.91z" fill="#000072"/><path d="M9.055 19.235s1.155-1.193 2.616-1.078l.332 1.002s-.359 1.487-2.622.986l-.326-.91z" stroke="#000072" stroke-width=".2" stroke-miterlimit="10"/><path d="M13.445 19.405l.34-1.421 1.604.479.955.533v.409l-.224.74s-1.605.519-2.675-.74z" fill="#000072"/><path d="M13.445 19.405l.34-1.421 1.604.479.955.533v.409l-.224.74s-1.605.519-2.675-.74zM5.33 17.513l1.234 3.143M5.01 17.909s.213 1.455 1.144 2.723m-.323-3.24s.964 1.607 1.113 3.29m-.494-3.169s.584 1.144.914 3.143" stroke="#000072" stroke-width=".2" stroke-miterlimit="10"/><path d="M4.879 18.589s.002-.322.235-.197c0 0 .087-.563.468-.206 0 0 .014-.572.547-.229 0 0 .152-.42.47-.047 0 0 .159-.086.26.108" stroke="#000072" stroke-width=".2" stroke-miterlimit="10"/><path d="M5.045 18.106s.082-.416.407-.278c0 0 .064-.342.493-.229 0 0 .064-.223.573.063M4.924 18.76s.018-.323.266-.098c0 0 .079-.56.513-.2 0 0 .011-.546.517-.237 0 0 .186-.305.51-.04 0 0 .057-.158.22 0" stroke="#000072" stroke-width=".2" stroke-miterlimit="10"/><path d="M4.924 19.036s.1-.31.377-.04c0 0 .169-.507.53-.165 0 0 .145-.676.589-.211 0 0 .068-.442.421-.115 0 0 .027-.271.213-.054m-2.044.819s.094-.255.367-.072c0 0 .297-.403.57-.114 0 0 .293-.434.572-.104 0 0 .146-.408.433-.124 0 0 .107-.152.193-.02m-2.038.735s.166-.278.377-.112c0 0 .185-.317.589-.053 0 0 .192-.43.587-.105 0 0 .143-.365.393-.034 0 0 0-.355.176-.183m-1.999.839v-.09s.111-.325.376-.113c0 0 .274-.308.564-.07 0 0 .299-.385.57-.078 0 0 .163-.337.405-.001m-1.708.461s.01-.173.272-.109c0 0 .282-.21.562-.014 0 0 .197-.344.533-.083 0 0 .232-.269.39-.041m-1.612.463s.102-.152.287-.044c0 0 .241-.23.503-.039 0 0 .182-.27.488-.076 0 0 .194-.247.388-.057m-1.466.369s.032-.16.206-.007c0 0 .204-.128.46.007 0 0 .281-.172.458-.036 0 0 .23-.17.382-.008m-1.211.157s.135-.14.442.028c0 0 .169-.101.323-.065a.258.258 0 01.065.024m.021.041s.156-.134.42-.042" stroke="#000072" stroke-width=".2" stroke-miterlimit="10"/><path d="M7.23 19.038c-.047.104.134 1.74.134 1.74h2.254l-.048-.122-.514-.963-.322-.905c-.73-.101-1.445-1.779-1.445-1.779l-.508.53.126.289.237.54.086.67z" fill="#000072"/><path d="M20.08 17.436l-1.103 3.22m1.397-2.826s-.196 2.055-1.117 2.876m.397-3.289s-.747 1.763-1.102 3.259m.48-3.104s-.544 1.001-.826 3.29" stroke="#000072" stroke-width=".2" stroke-miterlimit="10"/><path d="M20.555 18.372s-.059-.285-.248-.093c0 0-.078-.51-.45-.195 0 0-.105-.434-.431-.1 0 0-.254-.415-.57 0 0 0-.066-.105-.22.033m1.939.644s-.07-.28-.327-.072c0 0-.15-.35-.52-.125 0 0-.088-.355-.473-.124 0 0-.114-.27-.498-.078 0 0-.09-.171-.25.015m2.066.718s-.147-.3-.398-.106c0 0-.234-.326-.573-.066 0 0-.128-.318-.454-.1 0 0-.167-.351-.513-.103 0 0-.063-.185-.315-.032m2.194.68s-.087-.298-.43-.051c0 0-.233-.382-.582-.1 0 0-.15-.389-.47-.07 0 0-.1-.317-.48-.077 0 0-.056-.247-.219-.035-.162.213-.043-.004-.043-.004m2.132.632s-.124-.333-.43-.072c0 0-.191-.271-.584-.1 0 0-.237-.28-.512 0 0 0-.187-.284-.433-.047 0 0-.096-.467-.327-.016m2.099.465s-.007-.303-.337-.06c0 0-.217-.297-.6-.017 0 0-.206-.306-.485.017 0 0-.19-.297-.427-.01 0 0-.008-.494-.326-.106m2.018.433s-.05-.166-.312-.038c0 0-.286-.21-.569-.005 0 0-.163-.226-.462-.024 0 0-.245-.21-.414-.009 0 0 .015-.376-.344-.087m1.911.364s-.04-.187-.259 0c0 0-.248-.164-.527.034 0 0-.275-.17-.451 0 0 0-.19-.252-.39 0 0 0-.062-.333-.255-.058m1.716.12s-.09-.081-.181.037c0 0-.363-.105-.508.105 0 0-.156-.167-.435 0 0 0-.137-.246-.341 0 0 0-.113-.327-.324 0" stroke="#000072" stroke-width=".2" stroke-miterlimit="10"/><path d="M16.841 18.762l.725-.686.57-.95.07-.21.479.52.037.26-.26.288-.14.355-.061.423v.227l-.005.151s-.247 1.145-.12 1.596l-2.207.054-.072-.134.36-.687.396-.912.229-.295z" fill="#000072"/><path d="M16.438 14.315s-1.766 3.365-1.964 4.305m1.399-4.047s-1.726 3.394-1.573 3.68m3.222-3.864s-1.312 3.51-1.922 4.33" stroke="#000072" stroke-width=".2" stroke-miterlimit="10"/><path d="M15.155 15.085s.4-.416.498-.07c0 0 .268-.387.487-.121 0 0 .52-.412.604.049 0 0 .473-.367.512.142 0 0 .172-.048.168.378 0 0 .154.332.109.46" stroke="#000072" stroke-width=".2" stroke-miterlimit="10"/><path d="M15.812 14.697s.312-.278.49-.123c0 0 .421-.419.64-.07 0 0 .417-.073.424.293 0 0 .169.207.155.288 0 0-.192 1.273-.561 2.029 0 0-.49 1.648-.987 1.78" stroke="#000072" stroke-width=".2" stroke-miterlimit="10"/><path d="M15.094 15.34s.25-.306.398 0c0 0 .367-.347.381 0 0 0 .58-.275.655.07 0 0 .428-.299.514.213 0 0 .41-.151.28.369 0 0 .228-.059.185.269" stroke="#000072" stroke-width=".2" stroke-miterlimit="10"/><path d="M14.868 15.723s.363-.334.41.059c0 0 .35-.337.37.088 0 0 .629-.316.614.121 0 0 .44-.137.518.275 0 0 .38-.124.419.224 0 0 .28-.018.253.204m-2.775-.546s.28-.46.45-.003c0 0 .226-.2.329.084 0 0 .55-.18.599.22 0 0 .372-.229.558.134 0 0 .432-.07.495.18 0 0 .197-.06.268.153m-2.809-.502s.26-.133.337.17c0 0 .268-.231.376.045 0 0 .439-.165.58.181 0 0 .476-.177.63.15 0 0 .323-.085.499.13 0 0 .214-.08.243.136m-2.853-.457s.359-.262.358.177c0 0 .312-.216.356.054 0 0 .486-.138.605.226 0 0 .405-.29.604.152 0 0 .416-.219.51.142m-2.565-.33s.278-.294.37.035c0 0 .256-.212.35.09 0 0 .447-.122.598.205 0 0 .401-.17.596.166 0 0 .347-.217.526.114m-2.564-.333s.284-.173.374.052c0 0 .25-.169.345.083 0 0 .489-.1.564.198 0 0 .446-.126.62.17 0 0 .338-.118.535.116 0 0 .079-.047.079.168m-2.627-.525s.304-.154.365.043c0 0 .326-.129.353.09 0 0 .553-.122.585.198 0 0 .49-.144.563.194 0 0 .424-.172.518.209 0 0 .165-.077.213.157m-7.826-4.55s1.574 2.541 1.942 4.184m-1.038-3.693s1.176 2.116 1.567 3.516m-3.227-3.603s1.371 3.817 1.82 4.115m-1.875-3.403s1.108 3.402 1.439 3.576" stroke="#000072" stroke-width=".2" stroke-miterlimit="10"/><path d="M8.128 14.627s.03-.4.362-.168c0 0 .132-.286.507-.037 0 0 .1-.153.416-.028M8.048 15.41s.03-.28.263-.171c0 0 .073-.39.475-.117 0 0 .074-.41.518-.16 0 0 .28-.358.6 0 0 0 .236-.214.408 0m-2.339.111s.103-.17.227-.11c0 0 .133-.371.421-.206 0 0 .183-.27.513-.095 0 0 .343-.155.554-.059m-1.752 1.339s.04-.189.264-.08c0 0 .031-.286.289-.138 0 0 .066-.393.525-.15 0 0 .046-.457.533-.164 0 0 .214-.351.538-.098 0 0 .036-.2.284-.03m-2.396 1.103s.102-.313.364-.124c0 0 .054-.334.324-.113 0 0 .199-.307.491-.156 0 0 .263-.416.604-.178 0 0 .247-.32.514-.13 0 0 .01-.123.263-.061m-2.485 1.071s.07-.321.402-.112c0 0 .154-.22.355-.072 0 0 .173-.372.53-.158 0 0 .24-.338.624-.125 0 0 .176-.283.515-.121 0 0-.03-.166.228-.06m-2.522.963s.077-.282.345-.14c0 0 .16-.296.402-.073 0 0 .107-.376.56-.12 0 0 .217-.327.616-.167 0 0 .158-.31.515-.12 0 0 .074-.154.254-.031m-2.674.932s.109-.361.406-.28c0 0 .267-.141.401-.012 0 0 .384-.283.58-.082 0 0 .397-.307.637-.111 0 0 .271-.224.536-.068 0 0 .145-.157.324-.041m.172.431s-.277-.358-.34-.021c0 0-.472-.277-.516.12 0 0-.463-.341-.626.105 0 0-.473-.256-.594.104 0 0-.302-.31-.348.085 0 0-.158-.06-.185.094m2.733-.18s-.255-.277-.323.037c0 0-.375-.242-.534.086 0 0-.405-.201-.562.171 0 0-.433-.237-.548.172 0 0-.297-.118-.399.177 0 0-.152-.04-.228.177m2.654-.582s-.193-.342-.283.083c0 0-.239-.146-.518.154 0 0-.359-.12-.555.113 0 0-.284-.077-.49.127a.522.522 0 00-.032.037m.01-.014s-.265-.024-.402.219c0 0-.191.008-.28.228-.087.221-.04-.031-.04-.031" stroke="#000072" stroke-width=".2" stroke-miterlimit="10"/><path fill-rule="evenodd" clip-rule="evenodd" d="M12.727 5.092c3.037 0 5.374 3.105 5.374 5.698 0 2.593-4.283 3.64-5.374 3.692-1.092.051-5.597-1.175-5.597-3.768s2.56-5.622 5.597-5.622z" fill="#FF850B"/><path d="M12.728 5.217c-3.03 0-5.468 3.007-5.468 5.496 0 .648.3 1.256.89 1.81 1.316 1.232 3.717 1.833 4.51 1.833l.062-.001c.575-.027 1.9-.318 3.045-.88 1.007-.494 2.207-1.36 2.207-2.686 0-2.576-2.292-5.572-5.246-5.572zm-.064 9.391c-.852 0-3.306-.606-4.691-1.903-.644-.603-.97-1.273-.97-1.992 0-1.298.633-2.744 1.693-3.869 1.126-1.194 2.596-1.879 4.032-1.879 1.445 0 2.839.682 3.923 1.92.99 1.13 1.58 2.589 1.58 3.904 0 1.151-.813 2.158-2.35 2.912-1.178.578-2.55.878-3.147.906a1.56 1.56 0 01-.07.001z" fill="#000072"/><path opacity=".5" fill-rule="evenodd" clip-rule="evenodd" d="M12.726 5.091c1.867 0 3.469 1.173 4.427 2.68.01.048.02.097.028.146a5.55 5.55 0 00-3.747-2.313c.096.036.152.079.152.125 0 .128-.438.231-.98.231-.54 0-.98-.103-.98-.231 0-.046.056-.089.153-.125a5.55 5.55 0 00-3.747 2.313l.005-.027c1.008-1.566 2.751-2.799 4.69-2.799z" fill="#fff"/><path fill-rule="evenodd" clip-rule="evenodd" d="M17.956 11.586c-.755 2.014-4.258 2.85-5.23 2.895-.961.045-4.574-.902-5.418-2.902.064-1.09.628-1.388 1.67-.855.429.219.865.447 1.21.273 1.972-.993 3.176-.806 4.526 0 .631.377 1.247-.185 1.633-.357 1.231-.545 1.796-.164 1.61.946z" fill="#fff"/><path opacity=".3" fill-rule="evenodd" clip-rule="evenodd" d="M18.077 10.338c.015.152.024.303.024.453 0 .095-.007.188-.018.28l.001-.027c-.15 1.73-3.697 3.051-5.606 3.158-1.593.089-4.775-1.596-5.31-3.159l.004.098a2.185 2.185 0 01-.042-.426c0-.117.005-.234.015-.352l.009-.025a6.69 6.69 0 005.462 2.803 6.69 6.69 0 005.461-2.803z" fill="#000072"/><path fill-rule="evenodd" clip-rule="evenodd" d="M10.762 9.508a1.787 1.787 0 01-.521-.374c-.308.014-.554.337-.554.734 0 .405.257.734.574.734.318 0 .575-.329.575-.734a.893.893 0 00-.074-.36z" fill="#000072"/><path d="M15.586 8.817a3.17 3.17 0 01-.61.627c-.296.218-.615.256-.65.016.159-.018.324-.09.496-.217.423-.312.555-.514.764-.426z" fill="#000072"/><path fill-rule="evenodd" clip-rule="evenodd" d="M14.62 9.508c.17-.074.343-.2.521-.374.308.014.554.337.554.734 0 .405-.257.734-.574.734-.318 0-.575-.329-.575-.734a.89.89 0 01.074-.36z" fill="#000072"/><path fill-rule="evenodd" clip-rule="evenodd" d="M14.882 9.681a.173.173 0 00-.17.177c0 .097.076.176.17.176a.172.172 0 00.168-.176.173.173 0 00-.168-.177z" fill="#fff"/><path fill-rule="evenodd" clip-rule="evenodd" d="M12.617 9.997c.411 0 .744.218.744.487 0 .27-.333.488-.744.488-.41 0-.744-.218-.744-.488 0-.269.333-.487.744-.487z" fill="#000072"/><path d="M13.328 11.568c-.262 0-.516-.095-.71-.266a.991.991 0 01-.81.238.975.975 0 01-.757-.6.125.125 0 01.073-.163.13.13 0 01.166.072.718.718 0 00.557.442.728.728 0 00.67-.25.13.13 0 01.197-.003.814.814 0 001.305-.107.13.13 0 01.176-.044c.06.036.08.114.044.173a1.067 1.067 0 01-.911.508z" fill="#000072"/><path fill-rule="evenodd" clip-rule="evenodd" d="M12.617 11.12c.267.25.53.356.789.318.063 1.647-1.636 1.58-1.578-.023.316.04.58-.059.789-.295z" fill="#000072"/><path d="M11.956 11.55c.013.42.164.75.417.897a.501.501 0 00.517.004c.241-.142.38-.458.389-.879-.219-.006-.438-.1-.655-.277a.955.955 0 01-.662.256h-.006zm.68 1.223a.784.784 0 01-.394-.109c-.366-.212-.563-.669-.542-1.252l.005-.138.14.017a.727.727 0 00.675-.253l.088-.1.098.091c.24.224.463.318.681.286l.142-.02.005.14c.023.579-.164 1.028-.513 1.232a.759.759 0 01-.385.106z" fill="#000072"/><path fill-rule="evenodd" clip-rule="evenodd" d="M12.631 12.03a.718.718 0 00-.577.29c.309.431.857.438 1.152-.005a.718.718 0 00-.575-.285z" fill="#F06"/><path d="M12.219 12.323a.57.57 0 00.424.197.534.534 0 00.397-.198.594.594 0 00-.821 0zm.415.45c-.264 0-.514-.139-.687-.38l-.052-.074.053-.073a.85.85 0 011.36-.004l.053.07-.05.073a.819.819 0 01-.664.387h-.013z" fill="#000072"/><path fill-rule="evenodd" clip-rule="evenodd" d="M17.475 8.151c-.824-1.338-1.813-2.244-2.965-2.717 2.26-3.112 3.249-2.206 2.965 2.717z" fill="#FF850B"/><path d="M14.707 5.38c1.012.454 1.905 1.249 2.661 2.368.138-3.033-.28-3.84-.666-3.974-.294-.101-.878.1-1.995 1.606zm2.874 3.184l-.215-.348c-.806-1.308-1.784-2.206-2.905-2.666l-.149-.061.094-.129c1.034-1.423 1.813-2.02 2.38-1.824.726.25.985 1.72.818 4.622l-.023.406z" fill="#000072"/><path fill-rule="evenodd" clip-rule="evenodd" d="M14.315 8.314c.19-.076.381-.049.428.062.046.111-.07.263-.26.34-.191.076-.383.048-.429-.063-.046-.11.07-.262.26-.339zM11 8.306c-.19-.076-.381-.048-.427.062-.047.111.07.263.26.34.19.076.382.049.428-.062.046-.111-.07-.263-.26-.34zm-.653 1.375a.173.173 0 00-.17.177c0 .097.076.176.17.176a.172.172 0 00.168-.176.173.173 0 00-.168-.177z" fill="#fff"/><path fill-rule="evenodd" clip-rule="evenodd" d="M7.842 8.215c.825-1.338 1.813-2.244 2.966-2.718-2.261-3.111-3.25-2.205-2.966 2.718z" fill="#FF850B"/><path d="M8.754 3.816a.417.417 0 00-.138.022c-.385.133-.804.94-.666 3.974.755-1.12 1.649-1.915 2.66-2.368-.964-1.3-1.53-1.628-1.856-1.628zM7.737 8.628l-.023-.406c-.167-2.903.092-4.372.817-4.622.568-.196 1.347.4 2.381 1.823l.093.129-.148.061c-1.121.46-2.099 1.358-2.905 2.667l-.215.348z" fill="#000072"/><path opacity=".65" fill-rule="evenodd" clip-rule="evenodd" d="M10.522 5.625c.094-.045.188-.088.284-.127C9.404 3.57 8.492 3.185 8.068 4.343c.452-.814 1.27-.387 2.454 1.282z" fill="#fff"/><path fill-rule="evenodd" clip-rule="evenodd" d="M8.46 7.308A6.834 6.834 0 019.826 6.04C8.685 3.857 8.229 4.28 8.459 7.308z" fill="#000072"/><path d="M8.754 4.794l-.012.001c-.014.004-.136.054-.188.61-.035.374-.03.906.012 1.583.332-.368.7-.7 1.096-.987-.6-1.127-.85-1.207-.908-1.207zm-.398 2.84l-.024-.318c-.175-2.304.074-2.69.34-2.763.32-.089.699.339 1.269 1.429l.05.097-.09.063A6.78 6.78 0 008.56 7.386l-.204.248z" fill="#000072"/><path opacity=".3" fill-rule="evenodd" clip-rule="evenodd" d="M8.607 4.741c-.417.306-.686 1.134-.807 2.483.007.31.02.64.041.99.062-.109.127-.217.196-.323l-.005.026a7.66 7.66 0 011.073-1.296c-.224.208-.435.43-.633.67l-.011.014-.002.002c-.112-1.466-.063-2.322.148-2.566zm8.102-.063c.417.306.686 1.133.807 2.482-.007.31-.021.64-.041.991a6.285 6.285 0 00-.196-.324l.005.027a7.666 7.666 0 00-1.073-1.297 6.98 6.98 0 01.644.684l.001.002.001.001c.112-1.467.063-2.323-.148-2.566z" fill="#000072"/><path opacity=".65" fill-rule="evenodd" clip-rule="evenodd" d="M14.792 5.559a4.993 4.993 0 00-.283-.127c1.401-1.929 2.313-2.313 2.737-1.155-.451-.815-1.27-.387-2.454 1.282z" fill="#fff"/><path fill-rule="evenodd" clip-rule="evenodd" d="M16.86 7.243a6.877 6.877 0 00-1.367-1.268c1.141-2.182 1.597-1.76 1.367 1.268z" fill="#000072"/><path d="M15.656 5.939a7 7 0 011.095.987c.043-.678.047-1.21.012-1.584-.052-.556-.174-.605-.188-.61-.025-.006-.26-.03-.92 1.207zM16.96 7.57l-.203-.247a6.776 6.776 0 00-1.341-1.245l-.09-.063.05-.097c.57-1.09.949-1.517 1.268-1.429.267.074.516.46.34 2.764l-.024.317zM8.754 3.816a.417.417 0 00-.138.022c-.385.133-.804.94-.666 3.974.755-1.12 1.649-1.915 2.66-2.368-.964-1.3-1.53-1.628-1.856-1.628zM7.737 8.628l-.023-.406c-.167-2.903.092-4.372.817-4.622.568-.196 1.347.4 2.381 1.823l.093.129-.148.061c-1.121.46-2.099 1.358-2.905 2.667l-.215.348z" fill="#000072"/><path d="M12.728 5.217c-3.03 0-5.468 3.007-5.468 5.496 0 .648.3 1.256.89 1.81 1.316 1.232 3.717 1.833 4.51 1.833l.062-.001c.575-.027 1.9-.318 3.045-.88 1.007-.494 2.207-1.36 2.207-2.686 0-2.576-2.292-5.572-5.246-5.572zm-.064 9.391c-.852 0-3.306-.606-4.691-1.903-.644-.603-.97-1.273-.97-1.992 0-1.298.633-2.744 1.693-3.869 1.126-1.194 2.596-1.879 4.032-1.879 1.445 0 2.839.682 3.923 1.92.99 1.13 1.58 2.589 1.58 3.904 0 1.151-.813 2.158-2.35 2.912-1.178.578-2.55.878-3.147.906a1.56 1.56 0 01-.07.001z" fill="#000072"/><path opacity=".56" fill-rule="evenodd" clip-rule="evenodd" d="M12.861 10.192c.112.029.196.082.186.118-.01.037-.109.042-.221.013-.112-.029-.195-.082-.186-.118.01-.036.11-.042.221-.013z" fill="#fff"/><path d="M9.888 8.817c.207.27.41.48.611.627.295.218.614.256.65.016a1.044 1.044 0 01-.496-.217c-.424-.312-.556-.514-.765-.426zm4.819-3.437c1.012.454 1.905 1.249 2.661 2.368.138-3.033-.28-3.84-.666-3.974-.294-.101-.878.1-1.995 1.606zm2.874 3.184l-.215-.348c-.806-1.308-1.784-2.206-2.905-2.666l-.149-.061.094-.129c1.034-1.423 1.813-2.02 2.38-1.824.726.25.985 1.72.818 4.622l-.023.406z" fill="#000072"/></svg>